<?xml version="1.0" encoding="iso-8859-1"?>
<!-- Generator: Adobe Illustrator 19.0.0, SVG Export Plug-In . SVG Version: 6.00 Build 0)  -->
<svg version="1.1" id="Layer_1" xmlns="http://www.w3.org/2000/svg" xmlns:xlink="http://www.w3.org/1999/xlink" x="0px" y="0px"
	 viewBox="0 0 512 512" style="enable-background:new 0 0 512 512;" xml:space="preserve">
<path style="fill:#FECC97;" d="M495.278,510.992H16.722C7.49,510.992,0,503.507,0,494.27c0-9.237,7.49-16.722,16.722-16.722h478.555
	c9.232,0,16.722,7.485,16.722,16.722C512,503.507,504.51,510.992,495.278,510.992z"/>
<path style="fill:#F37B2A;" d="M251.172,428.274H137.011c-13.369,0-25.954-5.221-35.448-14.698l-61.217-61.217
	c-19.553-19.547-19.553-51.359,0-70.917l82.849-82.73c6.532-6.522,17.104-6.522,23.635,0.011l165.546,165.552
	c3.146,3.14,4.9,7.398,4.9,11.839s-1.775,8.699-4.921,11.834l-25.748,25.644C277.126,423.053,264.541,428.274,251.172,428.274z"/>
<path style="fill:#E56722;" d="M286.608,413.593l25.748-25.644c3.146-3.136,4.921-7.392,4.921-11.834s-1.752-8.699-4.9-11.839
	l-82.829-82.832L99.49,411.503l2.074,2.074c9.494,9.477,22.079,14.698,35.448,14.698h114.16
	C264.541,428.274,277.126,423.053,286.608,413.593z"/>
<path style="fill:#3AACE6;" d="M439.569,253.806c-4.431,0-8.688-1.764-11.823-4.9L262.2,83.356
	c-6.522-6.522-6.532-17.098-0.022-23.63l43.918-44.038c19.564-19.57,51.375-19.575,70.939-0.017l118.287,118.287
	c19.553,19.547,19.553,51.364,0,70.911l-43.918,44.026c-3.125,3.14-7.381,4.91-11.823,4.91L439.569,253.806L439.569,253.806z"/>
<path style="fill:#2B9FD9;" d="M427.745,248.907c3.136,3.136,7.392,4.9,11.823,4.9h0.011c4.441,0,8.699-1.769,11.823-4.91
	l43.918-44.026c19.553-19.547,19.553-51.364,0-70.911l-59.143-59.143l-91.261,91.261L427.745,248.907z"/>
<path style="fill:#EDF0F2;" d="M111.362,210.547L111.362,210.547L274.023,47.886l189.192,189.198l0,0L300.554,399.745
	L111.362,210.547z"/>
<rect x="267.631" y="156.092" transform="matrix(0.7071 0.7071 -0.7071 0.7071 289.6909 -157.1631)" style="fill:#DAE1E6;" width="133.855" height="230.029"/>
<g>
</g>
<g>
</g>
<g>
</g>
<g>
</g>
<g>
</g>
<g>
</g>
<g>
</g>
<g>
</g>
<g>
</g>
<g>
</g>
<g>
</g>
<g>
</g>
<g>
</g>
<g>
</g>
<g>
</g>
</svg>
