<?xml version="1.0" encoding="iso-8859-1"?>
<!-- Generator: Adobe Illustrator 19.0.0, SVG Export Plug-In . SVG Version: 6.00 Build 0)  -->
<svg version="1.1" id="Layer_1" xmlns="http://www.w3.org/2000/svg" xmlns:xlink="http://www.w3.org/1999/xlink" x="0px" y="0px"
	 viewBox="0 0 512 512" style="enable-background:new 0 0 512 512;" xml:space="preserve">
<polygon style="fill:#FBB429;" points="60.299,357.12 34.768,430.851 81.149,477.232 154.88,451.7 452.669,153.911 358.089,59.33 
	"/>
<path style="fill:#FF757C;" d="M400.931,16.487L358.089,59.33l94.581,94.581l42.842-42.842c8.404-8.404,8.404-22.03,0-30.434
	l-64.147-64.147C422.961,8.084,409.335,8.084,400.931,16.487z"/>
<polygon style="fill:#847C7C;" points="10.199,501.8 81.149,477.232 34.768,430.851 "/>
<g>
	<path style="fill:#4D4D4D;" d="M53.087,349.907c-1.091,1.091-1.921,2.416-2.425,3.875l-50.1,144.68
		c-1.278,3.691-0.336,7.788,2.425,10.55C4.932,510.957,7.539,512,10.201,512c1.118,0,2.245-0.184,3.336-0.562l144.681-50.1
		c1.459-0.505,2.783-1.335,3.875-2.425l340.631-340.631c12.367-12.368,12.367-32.491,0-44.859L438.577,9.275
		c-12.367-12.367-32.49-12.367-44.857,0l0,0L53.087,349.907z M65.104,374.415l72.481,72.481l-53.739,18.609l-37.351-37.351
		L65.104,374.415z M26.711,485.288l12.364-35.705l23.342,23.342L26.711,485.288z M155.848,436.308l-50.783-50.783l125.381-125.381
		c3.983-3.983,3.983-10.441,0-14.425c-3.983-3.982-10.441-3.982-14.425,0L90.641,371.101l-14.948-14.948L358.089,73.755
		l40.078,40.078l40.078,40.078L155.848,436.308z M488.299,103.856l-35.63,35.63L372.513,59.33l35.63-35.631
		c4.414-4.414,11.597-4.414,16.01,0l64.147,64.147C492.714,92.259,492.714,99.443,488.299,103.856z"/>
	<path style="fill:#4D4D4D;" d="M254.269,207.472l-14.279,14.279c-3.983,3.983-3.983,10.441,0,14.425
		c1.992,1.991,4.602,2.987,7.212,2.987c2.61,0,5.221-0.997,7.212-2.987l14.279-14.279c3.983-3.983,3.983-10.441,0-14.425
		C264.711,203.49,258.253,203.49,254.269,207.472z"/>
</g>
<g>
</g>
<g>
</g>
<g>
</g>
<g>
</g>
<g>
</g>
<g>
</g>
<g>
</g>
<g>
</g>
<g>
</g>
<g>
</g>
<g>
</g>
<g>
</g>
<g>
</g>
<g>
</g>
<g>
</g>
</svg>
