<?xml version="1.0" encoding="iso-8859-1"?>
<!-- Generator: Adobe Illustrator 19.0.0, SVG Export Plug-In . SVG Version: 6.00 Build 0)  -->
<svg version="1.1" id="Layer_1" xmlns="http://www.w3.org/2000/svg" xmlns:xlink="http://www.w3.org/1999/xlink" x="0px" y="0px"
	 viewBox="0 0 512 512" style="enable-background:new 0 0 512 512;" xml:space="preserve">
<circle style="fill:#05BEA6;" cx="256" cy="256" r="256"/>
<path style="fill:#00A49A;" d="M505.018,315.559l-66.743-68.07l-105.636,5.277L209.53,129.612l-57.827,46.801l-22.985,22.985
	l24.062,158.168l149.594,150.232C402.142,489.541,481.69,413.458,505.018,315.559z"/>
<path style="fill:#FFFFFF;" d="M438.277,247.491l-80.774-61.228l-61.219,80.775l27.477,20.825l23.295-30.737
	c0.657,16.991-3.16,33.925-11.355,49.338c-12.216,22.976-32.649,39.82-57.535,47.428c-24.886,7.609-51.247,5.07-74.221-7.147
	c-22.976-12.216-39.82-32.649-47.428-57.535c-7.609-24.886-5.07-51.245,7.147-74.221c12.216-22.976,32.649-39.82,57.535-47.428
	l-11.669-37.948c-35.014,10.704-63.686,34.435-80.875,66.762c-17.189,32.328-20.759,69.415-10.056,104.427
	s34.404,63.762,66.731,80.951c20.102,10.688,42.039,16.112,64.179,16.112c13.465,0,27.008-2.008,40.25-6.056
	c35.014-10.704,63.762-34.404,80.951-66.731c12.204-22.95,17.505-48.3,15.744-73.604l30.992,23.493L438.277,247.491z"/>
<path style="fill:#E6F3FF;" d="M438.277,247.491l-80.774-61.228l-61.219,80.775l27.477,20.825l23.295-30.737
	c0.657,16.991-3.16,33.925-11.355,49.338c-12.216,22.976-32.649,39.82-57.535,47.428c-8.621,2.636-17.418,4.025-26.19,4.244v39.683
	c12.65-0.231,25.35-2.208,37.783-6.01c35.014-10.704,63.762-34.404,80.951-66.731c12.204-22.95,17.505-48.3,15.744-73.604
	l30.992,23.493L438.277,247.491z"/>
<g>
</g>
<g>
</g>
<g>
</g>
<g>
</g>
<g>
</g>
<g>
</g>
<g>
</g>
<g>
</g>
<g>
</g>
<g>
</g>
<g>
</g>
<g>
</g>
<g>
</g>
<g>
</g>
<g>
</g>
</svg>
